<?xml version="1.0" encoding="UTF-8" standalone="no"?>
<svg
   xmlns:dc="http://purl.org/dc/elements/1.1/"
   xmlns:cc="http://creativecommons.org/ns#"
   xmlns:rdf="http://www.w3.org/1999/02/22-rdf-syntax-ns#"
   xmlns:svg="http://www.w3.org/2000/svg"
   xmlns="http://www.w3.org/2000/svg"
   id="svg38078"
   viewBox="0 0 200 200"
   height="200px"
   width="200px"
   version="1.1">
  <metadata
     id="metadata38084">
    <rdf:RDF>
      <cc:Work
         rdf:about="">
        <dc:format>image/svg+xml</dc:format>
        <dc:type
           rdf:resource="http://purl.org/dc/dcmitype/StillImage" />
      </cc:Work>
    </rdf:RDF>
  </metadata>
  <defs
     id="defs38082" />
  <g
     id="monogram"
     style="font-style:normal;font-weight:700;font-size:120px;line-height:1;font-family:'Comfortaa Bold Alt1';font-variant-ligatures:none;text-align:center;dominant-baseline:middle;text-anchor:middle;fill:#004b67"
     aria-label="a">
    <path
       id="path38086"
       style="font-style:normal;font-weight:700;font-size:120px;line-height:1;font-family:'Comfortaa Bold Alt1';font-variant-ligatures:none;text-align:center;dominant-baseline:middle;text-anchor:middle;fill:#004b67"
       d="m 133.01312,100.06 c 0,-6.12 -1.56,-11.88 -4.44,-16.92 -2.87999,-5.04 -6.83999,-9.12 -11.87999,-12 -5.04,-2.88 -10.56,-4.44 -16.68,-4.44 -6.240005,0 -11.880005,1.56 -16.920005,4.44 -5.04,2.88 -9,6.96 -11.88,12 -2.88,5.04 -4.32,10.68 -4.32,16.92 0,6.24 1.32,12 3.96,17.04 2.64,5.04 6.36,9 11.04,11.88 4.8,3 9.96,4.44 15.72,4.44 h 0.96 28.680005 c 1.56,0 2.87999,-0.6 4.07999,-1.68 1.08,-1.08 1.68,-2.4 1.68,-4.08 v -0.84 z m -51.599995,11.52 c -1.92,-3.36 -2.76,-7.2 -2.76,-11.52 0,-4.2 0.84,-8.04 2.76,-11.52 1.92,-3.36 4.44,-6.12 7.68,-8.04 3.24,-1.92 6.84,-3 10.920005,-3 3.95999,0 7.56,1.08 10.8,3 3.23999,1.92 5.76,4.68 7.67999,8.04 1.80001,3.48 2.76001,7.32 2.76001,11.52 0,4.32 -0.96,8.16 -2.76001,11.52 -1.91999,3.36 -4.44,6.12 -7.67999,8.04 -3.24,1.92 -6.84001,2.88 -10.8,2.88 -4.080005,0 -7.680005,-0.96 -10.920005,-2.88 -3.24,-1.92 -5.76,-4.68 -7.68,-8.04 z" />
  </g>
</svg>
